<svg xmlns="http://www.w3.org/2000/svg" xmlns:xlink="http://www.w3.org/1999/xlink" version="1.1" style="enable-background:new 0 0 109.602 109.602;" xml:space="preserve" width="109.602" height="109.602"><rect id="backgroundrect" width="100%" height="100%" x="0" y="0" fill="none" stroke="none"/>
















<g class="currentLayer" style=""><title>Layer 1</title><g id="svg_1" class="selected" fill="#eb1a1a" fill-opacity="1" stroke="none">
	<g id="svg_2" fill="#eb1a1a" fill-opacity="1" stroke="none" stroke-opacity="1">
		<g id="svg_3" fill="#eb1a1a" fill-opacity="1" stroke="none" stroke-opacity="1">
			<ellipse style="" cx="99.54900360107422" cy="28.91900062561035" rx="1.5099999904632568" ry="0.7519999742507935" id="svg_4" fill="#eb1a1a" fill-opacity="1" stroke="none" stroke-opacity="1"/>
		</g>
		<g id="svg_5" fill="#eb1a1a" fill-opacity="1" stroke="none" stroke-opacity="1">
			<path style="" d="M106.585,17.166H67.443c-1.657,0-3.013,1.356-3.013,3.01V31.07h6.027v-8.353h33.119v9.029H75.163     v8.278h28.412v1.507H75.163v7.526h28.412v1.503H75.163v34.189H64.437v4.67c0,1.653,1.356,3.01,3.01,3.01h39.145     c1.653,0,3.01-1.356,3.01-3.01V20.172C109.595,18.522,108.239,17.166,106.585,17.166z M87.009,72.527     c-2.491,0-4.517-2.018-4.517-4.517c0-2.491,2.022-4.517,4.517-4.517c2.494,0,4.52,2.018,4.52,4.517     C91.529,70.509,89.503,72.527,87.009,72.527z" id="svg_6" fill="#eb1a1a" fill-opacity="1" stroke="none" stroke-opacity="1"/>
		</g>
		<g id="svg_7" fill="#eb1a1a" fill-opacity="1" stroke="none" stroke-opacity="1">
			<rect x="0" y="34.652000427246094" style="" width="71.5770034790039" height="46.525001525878906" id="svg_8" fill="#eb1a1a" fill-opacity="1" stroke="none" stroke-opacity="1"/>
		</g>
		<g id="svg_9" fill="#eb1a1a" fill-opacity="1" stroke="none" stroke-opacity="1">
			<polygon style="" points="25.052,85.279 17.894,92.436 53.683,92.436 46.525,85.279    " id="svg_10" fill="#eb1a1a" fill-opacity="1" stroke="none" stroke-opacity="1"/>
		</g>
	</g>
</g><g id="svg_11">
</g><g id="svg_12">
</g><g id="svg_13">
</g><g id="svg_14">
</g><g id="svg_15">
</g><g id="svg_16">
</g><g id="svg_17">
</g><g id="svg_18">
</g><g id="svg_19">
</g><g id="svg_20">
</g><g id="svg_21">
</g><g id="svg_22">
</g><g id="svg_23">
</g><g id="svg_24">
</g><g id="svg_25">
</g></g></svg>