<svg xmlns="http://www.w3.org/2000/svg" xmlns:xlink="http://www.w3.org/1999/xlink" version="1.1" style="enable-background:new 0 0 103.185 103.185;" xml:space="preserve" width="103.185" height="103.185"><rect id="backgroundrect" width="100%" height="100%" x="0" y="0" fill="none" stroke="none"/>
















<g class="currentLayer" style=""><title>Layer 1</title><g id="svg_1" class="selected" fill="#009899" fill-opacity="1">
	<g id="svg_2" fill="#009899" fill-opacity="1">
		<path style="" d="M75.471,23.871c-4.695,0-9.108,1.177-12.98,3.239c3.633,4.205,6.331,9.212,7.82,14.727    c1.55-0.823,3.289-1.335,5.161-1.335c6.116,0,11.091,4.975,11.091,11.087s-4.975,11.087-11.091,11.087    c-1.872,0-3.615-0.512-5.161-1.335c-1.489,5.515-4.187,10.525-7.82,14.727c3.872,2.061,8.285,3.242,12.98,3.242    c15.307,0,27.715-12.422,27.715-27.725C103.185,36.29,90.778,23.871,75.471,23.871z" id="svg_3" fill="#009899" fill-opacity="1"/>
		<path style="" d="M75.471,57.136c-1.585,0-3.013-0.676-4.026-1.754c-0.154,1.568-0.44,3.081-0.784,4.577    c1.421,0.823,3.056,1.335,4.81,1.335c5.347,0,9.702-4.355,9.702-9.702c0-5.347-4.355-9.702-9.702-9.702    c-1.757,0-3.386,0.512-4.81,1.331c0.344,1.5,0.623,3.021,0.784,4.581c1.013-1.077,2.441-1.754,4.026-1.754    c3.056,0,5.547,2.48,5.547,5.544C81.018,54.653,78.527,57.136,75.471,57.136z" id="svg_4" fill="#009899" fill-opacity="1"/>
		<path style="" d="M34.114,39.654c-6.582,0-11.939,5.354-11.939,11.939s5.358,11.939,11.939,11.939    s11.939-5.354,11.939-11.939S40.695,39.654,34.114,39.654z M34.114,58.414c-3.765,0-6.825-3.06-6.825-6.825    c0-3.765,3.056-6.821,6.825-6.821s6.821,3.056,6.821,6.821C40.931,55.354,37.875,58.414,34.114,58.414z" id="svg_5" fill="#009899" fill-opacity="1"/>
		<path style="" d="M34.114,17.476C15.271,17.476,0,32.754,0,51.589C0,70.428,15.275,85.71,34.114,85.71    s34.114-15.282,34.114-34.121C68.224,32.754,52.949,17.476,34.114,17.476z M34.114,65.235c-7.526,0-13.646-6.123-13.646-13.646    s6.12-13.643,13.646-13.643S47.76,44.07,47.76,51.589C47.76,59.115,41.633,65.235,34.114,65.235z" id="svg_6" fill="#009899" fill-opacity="1"/>
	</g>
</g><g id="svg_7">
</g><g id="svg_8">
</g><g id="svg_9">
</g><g id="svg_10">
</g><g id="svg_11">
</g><g id="svg_12">
</g><g id="svg_13">
</g><g id="svg_14">
</g><g id="svg_15">
</g><g id="svg_16">
</g><g id="svg_17">
</g><g id="svg_18">
</g><g id="svg_19">
</g><g id="svg_20">
</g><g id="svg_21">
</g></g></svg>