<svg xmlns="http://www.w3.org/2000/svg" xmlns:xlink="http://www.w3.org/1999/xlink" version="1.1" style="enable-background:new 0 0 67.998 67.998;" xml:space="preserve" width="67.998" height="67.998"><rect id="backgroundrect" width="100%" height="100%" x="0" y="0" fill="none" stroke="none"/>
















<g class="currentLayer" style=""><title>Layer 1</title><g id="svg_1" class="selected" fill="#009899" fill-opacity="1">
	<path style="" d="M46.228,0H7.158v18.045h2.834v15.955H7.158v33.999H60.84V14.612L46.228,0z M13.571,11.853H9.992   V2.906h3.579V11.853z M18.492,11.853h-3.579V2.906h3.579V11.853z M23.413,11.853h-3.579V2.906h3.579V11.853z M28.334,11.853h-3.579   V2.906h3.579V11.853z M33.255,11.853h-3.579V2.906h3.579V11.853z M38.176,11.853h-3.579V2.906h3.579V11.853z M43.097,11.853h-3.579   V2.906h3.579V11.853z" id="svg_2" fill="#009899" fill-opacity="1"/>
</g><g id="svg_3">
</g><g id="svg_4">
</g><g id="svg_5">
</g><g id="svg_6">
</g><g id="svg_7">
</g><g id="svg_8">
</g><g id="svg_9">
</g><g id="svg_10">
</g><g id="svg_11">
</g><g id="svg_12">
</g><g id="svg_13">
</g><g id="svg_14">
</g><g id="svg_15">
</g><g id="svg_16">
</g><g id="svg_17">
</g></g></svg>