<svg xmlns="http://www.w3.org/2000/svg" xmlns:xlink="http://www.w3.org/1999/xlink" version="1.1" style="enable-background:new 0 0 71.577 71.577;" xml:space="preserve" width="71.577" height="71.577"><rect id="backgroundrect" width="100%" height="100%" x="0" y="0" fill="none" stroke="none"/>
















<g class="currentLayer" style=""><title>Layer 1</title><g id="svg_1" class="selected" fill="#009900" fill-opacity="1">
	<g id="svg_2" fill="#009900" fill-opacity="1">
		<path style="" d="M0,0.753v46.525h57.258c0,2.756,2.298,2.756,3.965,2.756c2.083,0,2.931,0.154,2.931,1.714h1.034    C65.189,49,62.891,49,61.223,49c-2.083,0-2.931-0.154-2.931-1.718h13.285V0.757H0V0.753z" id="svg_3" fill="#009900" fill-opacity="1"/>
		<polygon style="" points="25.052,51.383 17.894,58.541 53.683,58.541 46.525,51.383   " id="svg_4" fill="#009900" fill-opacity="1"/>
		<path style="" d="M66.592,51.748c0.093,0.301,0.147,0.623,0.147,0.963v4.499c0,1.417-0.93,2.58-2.061,2.58    c-1.138,0-2.069-1.16-2.069-2.58v-4.502c0-0.34,0.054-0.666,0.147-0.959c-2.852,0.755-4.985,3.343-4.985,6.424v5.987    c0,3.665,3.006,6.664,6.667,6.664h0.465c3.668,0,6.667-2.999,6.667-6.664v-5.987C71.577,55.091,69.444,52.507,66.592,51.748z" id="svg_5" fill="#009900" fill-opacity="1"/>
		<ellipse style="" cx="64.677001953125" cy="54.95899963378906" rx="1.034000039100647" ry="2.072000026702881" id="svg_6" fill="#009900" fill-opacity="1"/>
	</g>
</g><g id="svg_7">
</g><g id="svg_8">
</g><g id="svg_9">
</g><g id="svg_10">
</g><g id="svg_11">
</g><g id="svg_12">
</g><g id="svg_13">
</g><g id="svg_14">
</g><g id="svg_15">
</g><g id="svg_16">
</g><g id="svg_17">
</g><g id="svg_18">
</g><g id="svg_19">
</g><g id="svg_20">
</g><g id="svg_21">
</g></g></svg>