<svg xmlns="http://www.w3.org/2000/svg" xmlns:xlink="http://www.w3.org/1999/xlink" version="1.1" style="enable-background:new 0 0 80.746 80.746;" xml:space="preserve" width="80.746" height="80.746"><rect id="backgroundrect" width="100%" height="100%" x="0" y="0" fill="none" stroke="none"/>
















<g class="currentLayer" style=""><title>Layer 1</title><g id="svg_1" class="selected" fill="#1a1aeb" fill-opacity="1">
	<g id="svg_2" fill="#1a1aeb" fill-opacity="1">
		<path style="" d="M73.613,36.714H61.742V13.161c0-1.306-1.07-2.376-2.373-2.376h-38c-1.306,0-2.373,1.07-2.373,2.376    v23.552H7.122C3.203,36.714,0,39.92,0,43.832v19.004c0,3.919,3.207,7.125,7.122,7.125h11.953C19.054,69.825,19,69.707,19,69.564    v-9.498c0-1.417,1.156-2.573,2.573-2.573h37.596c1.417,0,2.577,1.16,2.577,2.573v9.498c0,0.143-0.061,0.261-0.079,0.397h11.953    c3.919,0,7.125-3.207,7.125-7.125V43.832C80.735,39.92,77.532,36.714,73.613,36.714z M22.554,20.834h35.62v15.883h-35.62V20.834z     M68.861,51.555c-1.639,0-2.967-1.328-2.967-2.97s1.328-2.97,2.967-2.97c1.643,0,2.97,1.328,2.97,2.97    S70.503,51.555,68.861,51.555z" id="svg_3" fill="#1a1aeb" fill-opacity="1"/>
		<rect x="21.365999221801758" y="59.8650016784668" style="" width="37.99700164794922" height="5.046000003814697" id="svg_4" fill="#1a1aeb" fill-opacity="1"/>
	</g>
</g><g id="svg_5">
</g><g id="svg_6">
</g><g id="svg_7">
</g><g id="svg_8">
</g><g id="svg_9">
</g><g id="svg_10">
</g><g id="svg_11">
</g><g id="svg_12">
</g><g id="svg_13">
</g><g id="svg_14">
</g><g id="svg_15">
</g><g id="svg_16">
</g><g id="svg_17">
</g><g id="svg_18">
</g><g id="svg_19">
</g></g></svg>