<svg xmlns="http://www.w3.org/2000/svg" xmlns:xlink="http://www.w3.org/1999/xlink" version="1.1" style="enable-background:new 0 0 81.852 81.852;" xml:space="preserve" width="81.852" height="81.852"><rect id="backgroundrect" width="100%" height="100%" x="0" y="0" fill="none" stroke="none"/>
















<g class="currentLayer" style=""><title>Layer 1</title><g id="svg_1" class="selected" fill-opacity="1" fill="#dc0000">
	<g id="svg_2" fill="#dc0000">
		<g id="svg_3" fill="#dc0000">
			<path style="" d="M10.003,22.837v-4.083c0-0.744-0.601-1.342-1.342-1.342H1.342C0.601,17.411,0,18.012,0,18.753     c0,0.744,0.601,1.342,1.342,1.342h5.977v9.012H1.342V31.2h5.977v2.613H1.342V48.45h5.977v2.609H1.342v2.094h5.977v9.931     c0,0.741,0.601,1.342,1.342,1.342c0.741,0,1.342-0.601,1.342-1.342v-3.658h71.849V22.833L10.003,22.837L10.003,22.837z      M74.054,46.625H15.98c-1.006,0-1.832-0.82-1.832-1.829c0-1.009,0.82-1.832,1.832-1.832h58.074c1.006,0,1.832,0.82,1.832,1.832     C75.886,45.809,75.059,46.625,74.054,46.625z M74.054,39.307H15.98c-1.006,0-1.832-0.82-1.832-1.829     c0-1.013,0.82-1.832,1.832-1.832h58.074c1.006,0,1.832,0.82,1.832,1.832C75.886,38.487,75.059,39.307,74.054,39.307z" id="svg_4" fill="#dc0000"/>
		</g>
		<g id="svg_5" fill="#dc0000">
			<path style="" d="M16.026,60.672c0.107,1.356,0.687,3.769,1.421,3.769H51.11c0.73,0,1.313-2.412,1.421-3.769H16.026     z" id="svg_6" fill="#dc0000"/>
		</g>
		<g id="svg_7" fill="#dc0000">
			<path style="" d="M56.277,60.672c0.104,1.356,0.691,3.769,1.424,3.769h15.364c0.734,0,1.321-2.412,1.421-3.769     H56.277z" id="svg_8" fill="#dc0000"/>
		</g>
	</g>
</g><g id="svg_9">
</g><g id="svg_10">
</g><g id="svg_11">
</g><g id="svg_12">
</g><g id="svg_13">
</g><g id="svg_14">
</g><g id="svg_15">
</g><g id="svg_16">
</g><g id="svg_17">
</g><g id="svg_18">
</g><g id="svg_19">
</g><g id="svg_20">
</g><g id="svg_21">
</g><g id="svg_22">
</g><g id="svg_23">
</g></g></svg>