<svg xmlns="http://www.w3.org/2000/svg" xmlns:xlink="http://www.w3.org/1999/xlink" version="1.1" style="enable-background:new 0 0 77.275 77.275;" xml:space="preserve" width="77.275" height="77.275"><rect id="backgroundrect" width="100%" height="100%" x="0" y="0" fill="none" stroke="none"/>
















<g class="currentLayer" style=""><title>Layer 1</title><g id="svg_1" class="selected" fill="#989900" fill-opacity="1">
	<g id="svg_2" fill="#989900" fill-opacity="1">
		<g id="svg_3" fill="#989900" fill-opacity="1">
			<path style="" d="M60.576,57.866c-5.944,4.978-13.592,7.981-21.938,7.981s-15.994-3.006-21.938-7.981     C8.418,63.26,3.078,70.439,3.078,74.229c0,6.564,15.915,0.476,35.559,0.476s35.559,6.088,35.559-0.476     C74.197,70.435,68.857,63.256,60.576,57.866z" id="svg_4" fill="#989900" fill-opacity="1"/>
		</g>
		<g id="svg_5" fill="#989900" fill-opacity="1">
			<g id="svg_6" fill="#989900" fill-opacity="1">
				<g id="svg_7" fill="#989900" fill-opacity="1">
					<path style="" d="M38.637,63.217c-17.429,0-31.608-14.179-31.608-31.608S21.208,0,38.637,0       s31.608,14.179,31.608,31.608S56.066,63.217,38.637,63.217z M38.637,2.63c-15.976,0-28.974,12.998-28.974,28.974       s12.998,28.974,28.974,28.974s28.974-12.998,28.974-28.974S54.613,2.63,38.637,2.63z" id="svg_8" fill="#989900" fill-opacity="1"/>
				</g>
			</g>
			<g id="svg_9" fill="#989900" fill-opacity="1">
				<path style="" d="M38.637,5.264c-14.552,0-26.34,11.792-26.34,26.34c0,14.544,11.789,26.337,26.34,26.337      s26.34-11.792,26.34-26.337C64.978,17.057,53.189,5.264,38.637,5.264z M38.637,43.132c-6.352,0-11.524-5.168-11.524-11.524      s5.164-11.524,11.524-11.524s11.524,5.168,11.524,11.524S44.99,43.132,38.637,43.132z" id="svg_10" fill="#989900" fill-opacity="1"/>
			</g>
			<g id="svg_11" fill="#989900" fill-opacity="1">
				<path style="" d="M38.637,22.06c-5.268,0-9.548,4.284-9.548,9.548c0,5.264,4.28,9.548,9.548,9.548      s9.548-4.284,9.548-9.548S43.905,22.06,38.637,22.06z M38.637,38.19c-3.633,0-6.585-2.949-6.585-6.585h6.585V25.02      c3.633,0,6.585,2.949,6.585,6.585S42.27,38.19,38.637,38.19z" id="svg_12" fill="#989900" fill-opacity="1"/>
			</g>
		</g>
	</g>
</g><g id="svg_13">
</g><g id="svg_14">
</g><g id="svg_15">
</g><g id="svg_16">
</g><g id="svg_17">
</g><g id="svg_18">
</g><g id="svg_19">
</g><g id="svg_20">
</g><g id="svg_21">
</g><g id="svg_22">
</g><g id="svg_23">
</g><g id="svg_24">
</g><g id="svg_25">
</g><g id="svg_26">
</g><g id="svg_27">
</g></g></svg>